<?xml version="1.0" standalone="no"?>
<!DOCTYPE svg PUBLIC "-//W3C//DTD SVG 20010904//EN"
 "http://www.w3.org/TR/2001/REC-SVG-20010904/DTD/svg10.dtd">
<svg version="1.0" xmlns="http://www.w3.org/2000/svg"
 width="700.000000pt" height="700.000000pt" viewBox="0 0 700.000000 700.000000"
 preserveAspectRatio="xMidYMid meet">
<metadata>
Created by potrace 1.11, written by Peter Selinger 2001-2013
</metadata>
<g transform="translate(0.000000,700.000000) scale(0.100000,-0.100000)"
fill="#000000" stroke="none">
<path d="M3380 6933 c-1637 -62 -3003 -1262 -3269 -2873 -33 -199 -43 -330
-43 -560 0 -230 10 -361 43 -560 239 -1448 1381 -2590 2829 -2829 199 -33 330
-43 560 -43 230 0 361 10 560 43 1448 239 2590 1381 2829 2829 33 199 43 330
43 560 0 230 -10 361 -43 560 -239 1448 -1380 2589 -2829 2829 -203 33 -484
52 -680 44z m162 -110 c18 -16 24 -59 10 -79 -16 -24 -51 -35 -74 -23 -29 15
-38 28 -38 58 0 53 62 80 102 44z m-320 -20 c38 -34 11 -103 -40 -103 -53 0
-83 68 -46 104 20 21 63 20 86 -1z m650 0 c38 -34 11 -103 -40 -103 -53 0 -83
68 -46 104 20 21 63 20 86 -1z m-962 -43 c54 -54 -12 -137 -76 -95 -32 21 -33
77 -2 99 30 21 54 20 78 -4z m1275 -5 c14 -13 25 -33 25 -45 0 -27 -35 -60
-64 -60 -25 0 -66 41 -66 67 0 19 45 63 65 63 9 0 27 -11 40 -25z m-1585 -75
c24 -24 25 -48 4 -78 -22 -31 -78 -30 -99 2 -42 64 41 130 95 76z m1888 4 c31
-22 30 -78 -2 -99 -64 -42 -130 41 -76 95 24 24 48 25 78 4z m-954 -103 l28
-30 -28 -115 c-15 -64 -31 -116 -34 -116 -3 0 -19 52 -34 116 l-28 115 28 30
c15 16 31 29 34 29 3 0 19 -13 34 -29z m-1244 -11 c25 -25 25 -51 3 -78 -29
-34 -75 -33 -99 3 -40 61 43 128 96 75z m2504 5 c48 -49 15 -114 -54 -106 -21
3 -50 39 -50 62 0 46 71 76 104 44z m-1826 -121 c1 -33 -1 -90 -5 -129 l-8
-69 -54 116 -53 116 27 36 28 36 31 -23 c28 -22 31 -31 34 -83z m1171 67 c12
-16 21 -33 21 -39 0 -5 -24 -60 -54 -123 l-55 -114 0 50 c-1 28 -4 86 -7 131
l-7 80 34 22 c43 28 44 28 68 -7z m-2129 -103 c13 -25 13 -31 0 -55 -20 -37
-70 -43 -99 -14 -25 25 -27 49 -5 79 23 34 83 27 104 -10z m3084 13 c27 -29
18 -83 -16 -99 -45 -21 -88 8 -88 60 0 50 70 77 104 39z m-2744 -67 c22 -9 40
-19 40 -23 1 -3 9 -59 19 -123 10 -65 15 -118 12 -117 -3 0 -38 44 -77 98
l-71 97 16 42 c8 23 16 42 18 42 1 0 21 -7 43 -16z m2361 -26 l16 -42 -71 -97
c-39 -54 -74 -98 -77 -98 -3 -1 2 52 12 117 10 64 18 120 19 123 0 6 66 37 80
38 3 1 13 -18 21 -41z m-2981 -68 c24 -24 25 -48 4 -78 -32 -46 -114 -17 -114
40 0 26 36 58 65 58 14 0 34 -9 45 -20z m3646 -15 c21 -32 11 -72 -21 -87 -65
-29 -117 41 -72 100 5 6 25 12 43 12 25 0 38 -7 50 -25z m-1491 -110 c387 -62
712 -181 1030 -378 317 -196 656 -535 852 -852 199 -321 317 -644 380 -1040
25 -156 25 -594 0 -750 -63 -396 -181 -719 -380 -1040 -196 -317 -535 -656
-852 -852 -321 -199 -644 -317 -1040 -380 -156 -25 -594 -25 -750 0 -396 63
-719 181 -1040 380 -317 196 -656 535 -852 852 -199 321 -317 644 -380 1040
-25 156 -25 594 0 750 63 396 181 719 380 1040 196 317 535 656 852 852 359
222 741 351 1180 397 94 10 523 -3 620 -19z m-2415 -65 c24 -24 25 -48 4 -78
-22 -32 -78 -30 -100 3 -40 61 43 128 96 75z m4135 8 c30 -14 42 -50 27 -83
-25 -53 -112 -35 -112 23 0 30 16 57 40 65 8 3 16 6 17 6 1 1 14 -4 28 -11z
m-3763 -7 c18 -7 31 -32 62 -120 21 -62 37 -113 35 -115 -2 -2 -44 33 -93 78
l-88 83 7 41 c6 35 10 42 30 42 13 0 34 -4 47 -9z m3404 -37 l7 -46 -74 -66
c-127 -116 -122 -117 -76 11 22 62 43 116 47 121 7 7 51 20 82 25 4 1 10 -20
14 -45z m-4021 -184 c37 -41 13 -102 -39 -102 -58 0 -86 62 -46 102 25 25 62
26 85 0z m4635 0 c40 -40 12 -102 -46 -102 -52 0 -76 61 -39 102 23 26 60 25
85 0z m-4412 -259 c35 -57 61 -105 59 -108 -3 -2 -51 24 -108 59 -95 58 -104
66 -107 97 -5 53 2 63 50 59 43 -3 43 -3 106 -107z m4257 59 l0 -45 -104 -63
c-57 -35 -105 -61 -108 -59 -4 4 96 176 120 205 6 8 26 12 51 10 l41 -3 0 -45z
m-4695 -40 c50 -50 -6 -120 -75 -94 -37 15 -38 82 -1 106 20 14 56 8 76 -12z
m5055 8 c30 -14 42 -50 27 -83 -15 -32 -55 -42 -87 -21 -33 22 -35 78 -3 100
27 19 30 19 63 4z m-5245 -258 c40 -40 16 -103 -38 -103 -42 0 -62 19 -62 59
0 56 61 83 100 44z m5450 -10 c11 -11 20 -31 20 -45 0 -29 -32 -65 -58 -65
-34 0 -62 29 -62 65 0 57 60 85 100 45z m-5200 -182 c114 -126 115 -121 -16
-74 -64 23 -119 49 -124 57 -4 8 -10 28 -13 46 -5 27 -3 32 16 36 62 12 71 8
137 -65z m4989 56 c25 -5 31 -11 30 -33 -1 -53 -12 -63 -120 -102 -57 -21
-110 -38 -117 -38 -7 -1 24 40 69 89 45 50 88 90 95 90 6 0 26 -3 43 -6z
m-5391 -156 c21 -45 -8 -88 -60 -88 -29 0 -58 31 -58 64 0 58 92 77 118 24z
m5760 16 c34 -23 27 -83 -10 -104 -25 -13 -31 -13 -55 0 -37 20 -43 70 -14 99
25 25 49 27 79 5z m-5918 -292 c43 -35 15 -112 -41 -112 -41 0 -74 62 -51 96
9 13 43 33 58 34 7 0 22 -8 34 -18z m6043 7 c28 -15 37 -28 37 -56 0 -28 -33
-63 -59 -63 -31 0 -63 33 -63 65 0 18 8 36 22 47 26 21 34 22 63 7z m-5654
-230 c1 -3 -52 2 -116 12 -65 10 -121 18 -124 19 -7 0 -42 81 -37 85 2 1 21 9
42 17 l40 15 97 -71 c54 -39 98 -74 98 -77z m5479 116 c5 -4 -30 -85 -37 -85
-3 -1 -59 -9 -123 -19 -65 -10 -118 -15 -117 -12 0 3 44 38 97 77 l97 71 40
-15 c22 -8 41 -16 43 -17z m-5962 -210 c34 -52 -22 -114 -80 -87 -58 26 -36
112 29 112 26 0 39 -6 51 -25z m6272 -2 c27 -37 -2 -103 -46 -103 -58 0 -86
82 -39 115 25 18 66 12 85 -12z m-6358 -293 c28 -28 25 -64 -6 -89 -15 -12
-33 -21 -41 -21 -19 0 -63 45 -63 65 0 23 45 65 70 65 11 0 29 -9 40 -20z
m6436 -25 c21 -32 11 -72 -22 -87 -58 -27 -114 35 -80 87 23 35 79 35 102 0z
m-6125 -59 l114 -55 -50 0 c-27 -1 -86 -4 -131 -7 l-81 -7 -23 38 -24 38 30
23 c16 13 34 24 40 24 6 0 62 -24 125 -54z m5886 16 l33 -27 -26 -32 c-23 -30
-30 -33 -82 -33 -31 0 -88 3 -127 7 l-70 7 110 52 c61 29 115 53 120 53 6 0
25 -12 42 -27z m-6245 -249 c39 -35 11 -103 -43 -103 -35 0 -59 24 -59 57 0
55 62 83 102 46z m6522 -9 c36 -35 7 -104 -42 -104 -54 0 -81 62 -45 102 20
22 66 24 87 2z m-6548 -312 c24 -16 35 -51 23 -74 -15 -29 -28 -38 -58 -38
-53 0 -80 62 -44 102 16 18 59 24 79 10z m312 -19 c61 -15 112 -30 112 -33 0
-3 -52 -19 -116 -34 l-116 -28 -31 31 -31 31 29 30 c16 16 31 30 34 30 3 0 57
-12 119 -27z m6017 -3 l29 -30 -31 -31 -31 -31 -116 28 c-64 15 -116 31 -116
34 0 6 191 57 221 59 8 1 28 -13 44 -29z m237 13 c38 -34 11 -103 -41 -103
-32 0 -44 8 -60 38 -12 23 -1 58 23 74 19 13 59 9 78 -9z m-6540 -320 c39 -35
11 -103 -43 -103 -35 0 -59 24 -59 57 0 55 62 83 102 46z m6522 -9 c36 -35 7
-104 -42 -104 -54 0 -81 62 -45 102 20 22 66 24 87 2z m-6114 -252 l55 -7
-117 -54 -116 -53 -36 27 c-38 29 -38 28 3 78 15 18 98 22 211 9z m5841 -39
l23 -36 -30 -23 c-16 -13 -33 -24 -39 -24 -5 0 -61 24 -123 52 l-114 53 79 6
c182 13 179 13 204 -28z m-6211 -3 c26 -14 34 -57 15 -86 -31 -48 -115 -21
-115 38 0 43 58 70 100 48z m6435 -25 c14 -13 25 -31 25 -40 0 -23 -45 -65
-70 -65 -27 0 -60 35 -60 64 0 25 41 66 67 66 8 0 25 -11 38 -25z m-6357 -291
c31 -22 30 -78 -2 -99 -64 -42 -130 41 -76 95 24 24 48 25 78 4z m6282 -14
c24 -24 25 -48 4 -78 -22 -31 -78 -30 -99 2 -42 64 41 130 95 76z m-5781 -173
c-2 -1 -47 -35 -100 -74 l-95 -70 -40 15 c-21 8 -40 16 -42 17 -2 2 4 21 13
43 16 40 18 41 83 51 158 26 198 30 181 18z m5442 -27 c7 0 42 -81 37 -85 -2
-1 -21 -9 -42 -17 l-40 -15 -97 71 c-54 39 -98 74 -98 77 -1 3 52 -2 117 -12
64 -10 120 -18 123 -19z m-5833 -97 c34 -29 33 -75 -3 -99 -61 -40 -128 43
-75 96 25 25 51 25 78 3z m6062 -3 c53 -53 -14 -136 -75 -96 -36 24 -37 70 -3
99 27 22 53 22 78 -3z m-5922 -286 c28 -19 29 -67 2 -94 -24 -24 -48 -25 -78
-4 -45 31 -18 114 38 114 9 0 26 -7 38 -16z m5786 -16 c35 -50 5 -102 -55 -96
-57 5 -74 78 -25 110 23 16 65 8 80 -14z m-5355 -138 c-45 -49 -88 -90 -95
-90 -6 0 -26 3 -43 6 -25 5 -31 11 -30 33 1 53 12 63 120 102 57 21 110 38
117 38 7 1 -24 -39 -69 -89z m4991 -11 c4 -8 10 -28 13 -46 6 -31 6 -32 -39
-39 l-46 -7 -66 74 c-116 126 -117 122 14 75 64 -23 119 -49 124 -57z m-5262
-105 c46 -32 17 -114 -40 -114 -26 0 -58 36 -58 65 0 29 32 65 58 65 10 0 28
-7 40 -16z m5460 -16 c6 -6 12 -26 12 -44 0 -63 -86 -86 -112 -29 -29 65 43
118 100 73z m-4759 -215 c0 -5 -28 -53 -62 -108 l-62 -100 -45 0 -45 0 0 45 0
45 100 62 c100 62 116 69 114 56z m4096 -56 l100 -62 0 -45 0 -45 -45 0 -45 0
-62 100 c-62 100 -69 116 -55 114 4 0 52 -28 107 -62z m-4607 27 c32 -22 30
-78 -3 -100 -61 -40 -128 43 -75 96 24 24 48 25 78 4z m5067 0 c44 -17 35 -99
-12 -111 -58 -14 -101 43 -69 92 16 25 47 32 81 19z m-4834 -250 c30 -36 -1
-104 -48 -104 -51 0 -83 70 -45 102 32 29 70 30 93 2z m4632 -2 c37 -32 5
-102 -46 -102 -62 0 -82 98 -25 119 26 9 45 5 71 -17z m-3967 -168 c-23 -64
-49 -119 -57 -124 -8 -4 -28 -10 -46 -13 -31 -6 -32 -6 -39 39 -3 25 -3 49 2
54 24 22 178 160 180 160 1 0 -17 -52 -40 -116z m3344 -70 c0 -6 -3 -26 -6
-43 -5 -25 -11 -31 -33 -30 -53 1 -63 12 -102 120 -21 57 -38 110 -38 117 -1
7 40 -24 89 -69 50 -45 90 -88 90 -95z m-3782 30 c36 -25 27 -89 -15 -105 -62
-23 -110 54 -63 101 24 24 48 25 78 4z m4168 -19 c14 -21 14 -30 4 -55 -22
-53 -102 -50 -116 5 -16 65 75 106 112 50z m-3217 -212 c-10 -65 -18 -121 -19
-124 0 -7 -81 -42 -85 -37 -1 2 -9 21 -17 42 l-15 40 71 97 c39 54 74 98 77
98 3 1 -2 -52 -12 -116z m2247 18 l71 -97 -15 -40 c-8 -21 -16 -40 -17 -42 -4
-5 -85 30 -85 37 -1 3 -9 59 -19 124 -10 64 -15 117 -12 116 3 0 38 -44 77
-98z m-2941 25 c21 -15 25 -67 5 -90 -19 -24 -76 -20 -94 6 -21 30 -20 54 4
78 23 23 58 26 85 6z m3651 -21 c34 -52 -14 -110 -74 -89 -64 23 -46 114 23
114 26 0 39 -6 51 -25z m-2412 -186 l7 -127 -37 -23 -37 -23 -23 30 c-13 16
-24 34 -24 39 0 10 103 236 106 232 1 -1 5 -59 8 -128z m1195 -104 c0 -5 -12
-25 -27 -42 l-27 -33 -32 26 c-30 23 -33 30 -33 82 0 31 3 89 7 127 l7 70 52
-110 c29 -60 53 -114 53 -120z m-2176 154 c29 -16 37 -28 37 -61 0 -30 -32
-58 -66 -58 -55 0 -74 92 -24 117 31 15 27 15 53 2z m1561 -105 l28 -116 -31
-31 -31 -32 -31 32 -31 31 28 116 c15 64 31 116 34 116 3 0 19 -52 34 -116z
m1556 86 c24 -24 25 -48 4 -78 -31 -45 -114 -18 -114 38 0 53 71 79 110 40z
m-2793 -146 c31 -48 -12 -105 -70 -90 -32 8 -53 56 -37 86 23 43 80 45 107 4z
m2510 0 c33 -52 -25 -112 -82 -86 -46 21 -41 93 8 111 30 11 56 2 74 -25z
m-2209 -101 c27 -37 -2 -103 -46 -103 -58 0 -86 82 -39 115 25 18 66 12 85
-12z m1898 -8 c34 -52 -22 -114 -80 -87 -58 26 -36 112 29 112 26 0 39 -6 51
-25z m-1597 -71 c27 -34 26 -50 -4 -79 -31 -31 -49 -31 -80 0 -30 29 -32 58
-5 85 28 28 64 25 89 -6z m1269 10 c32 -22 30 -78 -3 -100 -32 -21 -72 -11
-87 21 -28 62 34 118 90 79z m-956 -51 c22 -20 24 -66 2 -87 -35 -36 -104 -7
-104 42 0 54 62 81 102 45z m650 0 c22 -20 24 -66 2 -87 -35 -36 -104 -7 -104
42 0 54 62 81 102 45z m-339 -4 c28 -15 37 -28 37 -58 0 -53 -62 -80 -102 -44
-18 16 -24 59 -10 79 6 9 41 33 50 34 2 0 13 -5 25 -11z"/>
<path d="M3255 6130 c-336 -36 -625 -119 -920 -265 -532 -262 -938 -668 -1200
-1200 -126 -254 -200 -487 -247 -777 -32 -193 -32 -583 0 -776 47 -290 121
-523 247 -777 262 -532 668 -938 1200 -1200 254 -126 487 -200 777 -247 193
-32 583 -32 776 0 290 47 523 121 777 247 532 262 938 668 1200 1200 126 254
200 487 247 777 18 112 22 174 22 388 0 276 -14 400 -70 627 -66 271 -208 596
-359 823 -418 628 -1063 1041 -1812 1161 -145 23 -502 34 -638 19z m281 -297
c-2 -10 -8 -37 -11 -60 -7 -43 -6 -43 23 -43 17 0 42 4 56 10 26 9 26 9 26
-35 0 -44 0 -44 -26 -35 -14 6 -39 10 -55 10 l-30 0 7 -47 c5 -27 7 -62 6 -80
l-2 -32 58 27 c111 52 266 29 309 -47 15 -25 19 -27 79 -23 147 10 245 -85
231 -222 -11 -114 -123 -290 -319 -503 l-38 -43 -350 0 -350 0 -38 43 c-196
213 -308 389 -319 503 -14 137 84 232 231 222 60 -4 64 -2 79 23 43 76 198 99
309 47 l58 -27 -2 32 c-1 18 1 53 6 80 l7 47 -30 0 c-16 0 -41 -4 -55 -10 -26
-9 -26 -9 -26 35 0 44 0 44 26 35 14 -6 39 -10 56 -10 29 0 30 0 23 43 -3 23
-9 50 -11 60 -5 14 1 17 36 17 35 0 41 -3 36 -17z m-723 -1570 l138 -6 -5 -36
c-3 -20 -8 -72 -11 -116 -9 -118 -16 -165 -26 -165 -5 0 -9 8 -9 19 0 39 -32
107 -67 143 -97 99 -299 116 -420 35 -87 -58 -116 -153 -73 -237 23 -46 60
-73 365 -270 121 -78 236 -158 256 -177 104 -99 133 -259 78 -428 -65 -202
-302 -321 -599 -300 -123 8 -220 30 -297 66 -89 42 -103 64 -103 158 1 104 41
261 68 261 5 0 12 -27 15 -60 7 -76 52 -174 103 -224 57 -56 113 -85 195 -102
231 -49 421 75 396 257 -11 82 -39 108 -336 304 -157 104 -294 202 -315 226
-132 146 -123 402 19 544 50 51 150 101 225 114 53 10 92 9 403 -6z m1227 -23
c0 -5 -12 -10 -26 -10 -37 0 -98 -36 -117 -70 -15 -25 -17 -89 -17 -662 0
-602 1 -635 19 -664 21 -34 75 -64 115 -64 14 0 26 -4 26 -10 0 -6 -115 -10
-325 -10 -210 0 -325 4 -325 10 0 6 10 10 22 10 36 0 102 38 121 69 16 27 17
80 17 661 0 571 -2 635 -17 660 -19 34 -80 70 -117 70 -14 0 -26 5 -26 10 0 6
115 10 325 10 210 0 325 -4 325 -10z m830 1 c0 -4 -21 -11 -46 -15 -57 -7
-119 -35 -161 -70 -39 -33 -443 -511 -443 -524 0 -13 523 -728 563 -770 42
-44 92 -74 135 -81 20 -4 37 -12 40 -19 5 -17 -229 -16 -333 3 -103 18 -206
70 -266 132 -65 68 -412 551 -406 566 2 7 120 164 261 351 141 186 256 347
256 357 0 27 -35 59 -65 59 -14 0 -25 5 -25 10 0 6 88 10 245 10 135 0 245 -4
245 -9z m-2440 -2003 c0 -41 -1 -42 -13 -18 -9 17 -22 26 -45 28 l-32 3 0 -75
0 -76 49 0 c40 0 53 4 65 22 15 21 16 20 15 -32 0 -30 -3 -48 -6 -40 -9 24
-25 30 -75 30 l-48 0 0 -70 0 -70 66 0 c74 0 97 9 119 48 l16 27 -6 -40 c-4
-22 -9 -43 -11 -47 -3 -5 -66 -8 -140 -8 -130 0 -134 1 -124 19 5 11 10 82 10
160 0 112 -3 143 -15 155 -14 14 -8 15 62 19 43 1 86 4 96 5 14 2 17 -6 17
-40z m371 36 c44 -6 45 -7 41 -41 -4 -33 -5 -34 -16 -12 -26 52 -118 43 -124
-12 -3 -22 8 -33 77 -78 86 -57 91 -64 91 -120 0 -81 -109 -127 -205 -87 -37
16 -43 38 -25 81 7 16 9 17 9 3 2 -30 44 -68 83 -75 30 -4 41 -1 62 20 35 35
25 56 -51 108 -75 50 -103 82 -103 115 0 39 23 76 55 90 35 15 46 16 106 8z
m478 -39 c0 -22 -3 -33 -6 -25 -10 27 -36 40 -80 40 l-43 0 0 -149 c0 -123 3
-152 16 -165 14 -15 9 -16 -51 -16 -60 0 -65 1 -51 16 13 13 16 42 16 165 l0
149 -42 0 c-48 0 -59 -6 -76 -35 -10 -17 -11 -15 -12 20 l0 40 165 0 165 0 -1
-40z m301 -120 c39 -88 81 -168 92 -177 20 -17 18 -18 -52 -18 -57 0 -70 3
-62 13 7 8 5 23 -5 50 -15 37 -15 37 -73 37 l-58 0 -16 -42 c-14 -33 -15 -43
-4 -49 8 -6 -4 -9 -31 -9 -42 0 -43 1 -28 18 13 15 127 260 151 326 3 10 8 17
10 15 2 -2 36 -76 76 -164z m480 120 c0 -39 -1 -39 -13 -15 -11 21 -21 25 -65
28 l-52 3 0 -150 c0 -123 3 -152 16 -165 14 -15 10 -16 -47 -16 -49 0 -60 3
-51 12 8 8 12 59 12 165 l0 153 -42 0 c-48 0 -59 -6 -76 -35 -10 -17 -11 -15
-12 20 l0 40 165 0 165 0 0 -40z m340 13 c0 -29 -1 -30 -18 -15 -12 11 -36 17
-71 17 l-52 0 3 -72 3 -73 45 0 c37 0 46 4 57 25 12 23 13 20 13 -35 0 -57 -1
-58 -16 -37 -12 17 -25 22 -60 22 l-44 0 0 -70 0 -70 51 0 c59 0 83 11 104 48
l16 27 -6 -40 c-4 -22 -9 -43 -11 -47 -3 -5 -59 -8 -125 -8 -115 0 -119 1
-109 19 5 11 10 82 10 160 0 112 -3 143 -15 155 -14 14 -5 16 92 19 59 1 114
4 121 5 7 1 12 -10 12 -30z m303 26 c35 -6 37 -9 37 -43 0 -35 -1 -35 -13 -12
-27 53 -119 46 -125 -10 -3 -22 6 -32 55 -64 92 -60 113 -83 113 -126 0 -73
-67 -117 -162 -106 -28 4 -56 12 -64 18 -16 13 -18 57 -4 79 8 13 10 13 10 -1
0 -54 87 -96 135 -65 50 33 31 69 -70 136 -63 43 -74 57 -75 98 0 45 16 71 53
87 36 16 56 17 110 9z"/>
<path d="M3207 5490 c-52 -41 -63 -142 -33 -300 23 -121 71 -276 120 -392 l16
-38 74 0 73 0 -5 333 c-5 373 0 350 -84 393 -60 30 -125 32 -161 4z"/>
<path d="M3630 5486 c-82 -43 -77 -21 -82 -393 l-5 -333 73 0 74 0 16 38 c104
245 160 528 125 634 -26 79 -110 101 -201 54z"/>
<path d="M2941 5393 c-91 -47 -99 -123 -29 -265 51 -102 126 -222 196 -310
l45 -58 58 0 c33 0 59 3 59 6 0 4 -27 61 -60 128 -77 158 -116 277 -132 406
l-13 105 -45 3 c-28 1 -58 -4 -79 -15z"/>
<path d="M3935 5398 c-2 -7 -8 -56 -15 -108 -14 -119 -54 -241 -130 -396 -33
-67 -60 -124 -60 -128 0 -3 26 -6 59 -6 l58 0 45 58 c70 88 145 208 196 310
70 142 62 218 -29 264 -40 21 -118 24 -124 6z"/>
<path d="M3453 2095 l-21 -55 49 0 49 0 -20 50 c-11 28 -20 53 -20 55 0 3 -3
5 -7 5 -5 0 -18 -25 -30 -55z"/>
</g>
</svg>
