<svg xmlns="http://www.w3.org/2000/svg" width="3840" height="920" viewBox="0 0 3840 920" preserveAspectRatio="xMidYMid meet" style="width: 100%; height: 100%;"><defs><clipPath id="animationMask_iv27MuWjYr"><rect width="3840" height="920" x="0" y="0"></rect></clipPath></defs><g clip-path="url(#animationMask_iv27MuWjYr)"><g transform="matrix(1.0968526039588073,-0.08315266194647018,0.08315266194647018,1.0968526039588073,3068.479541934617,188.61294184516404)" opacity="1" style="user-select: none;"><g opacity="1" transform="matrix(1,0,0,1,125.082,38.687)"><path fill="rgb(236,95,65)" fill-opacity="1" d="M0 0 M-10.917,-6.121 C-10.917,-6.121 4.583,14.047 4.583,14.047 C9.573,6.684 13.596,4.351 13.838,0.879 C14.097999999999999,-2.85 15.448,-6.7219999999999995 13.188,-9.083 C9.777000000000001,-12.647 -1.4489999999999998,-14.046 -5.917,-11.453 C-8.469999999999999,-9.972 -15.448,-12.701 -12.75,-8.953 C-12.75,-8.953 -10.917,-6.121 -10.917,-6.121z"></path></g><g opacity="1" transform="matrix(1,0,0,1,125.11,73.222)"><path fill="rgb(236,95,65)" fill-opacity="1" d="M0 0 M-10.917,6.12 C-10.917,6.12 4.583,-14.047 4.583,-14.047 C9.572,-6.684 13.596,-4.353 13.837,-0.88 C14.097999999999999,2.849 15.448,6.7219999999999995 13.188,9.083 C9.777000000000001,12.646 -1.4489999999999998,14.046 -5.917,11.453 C-8.469999999999999,9.972 -15.448,12.701 -12.751,8.953 C-12.751,8.953 -10.917,6.12 -10.917,6.12z"></path></g><g opacity="1" transform="matrix(1,0,0,1,69.893,55.556)"><path stroke-linecap="butt" stroke-linejoin="miter" fill-opacity="0" stroke-miterlimit="10" stroke="rgb(46,59,82)" stroke-opacity="1" stroke-width="4" d="M0 0 M59.894,0.188 C45.257999999999996,-27.269000000000002 23.720999999999997,-45.369 -4.045,-45.457 C-35.4,-45.556 -59.894,-21.337 -59.317,1.762 C-59.217,5.734999999999999 -58.382,9.643 -56.912,13.387 C-49.853,31.353 -28.155,45.556 -2.86,45.095 C38.997,44.330999999999996 57.984,3.349 59.894,0.188z"></path></g><g opacity="1" transform="matrix(1,0,0,1,84.955,40.21)"><path stroke-linecap="round" stroke-linejoin="round" fill-opacity="0" stroke="rgb(46,59,82)" stroke-opacity="1" stroke-width="4" d="M0 0 M-57.853,4.809 C-39.445,-11.605999999999998 -25.119,-11.732000000000001 -14.082,-11.746 C18.656999999999996,-11.789 44.622,15.181 44.622,15.181 C57.713,-0.6870000000000012 57.852999999999994,-7.324 51.663,-12.096 C47.662,-15.18 35.6,-14.641 24.613,-13.145"></path></g><g opacity="1" transform="matrix(1,0,0,1,16.526,57.367)"><path fill="rgb(236,95,65)" fill-opacity="1" d="M0 0 M-2.774,-15.767 C-1.617,-14.863999999999999 4.896,-9.608 5.867,-0.24 C6.756,8.345 -0.634,15.767 -0.634,15.767 C-0.634,15.767 -5.051,8.593 -5.949,-0.048 C-6.755,-7.811 -3.9299999999999997,-13.651 -2.774,-15.767z"></path><path stroke-linecap="round" stroke-linejoin="round" fill-opacity="0" stroke="rgb(46,59,82)" stroke-opacity="1" stroke-width="3" d="M0 0 M-2.774,-15.767 C-1.617,-14.863999999999999 4.896,-9.608 5.867,-0.24 C6.756,8.345 -0.634,15.767 -0.634,15.767 C-0.634,15.767 -5.051,8.593 -5.949,-0.048 C-6.755,-7.811 -3.9299999999999997,-13.651 -2.774,-15.767z"></path></g><g opacity="1" transform="matrix(1,0,0,1,86.529,71.741)"><path stroke-linecap="round" stroke-linejoin="round" fill-opacity="0" stroke="rgb(46,59,82)" stroke-opacity="1" stroke-width="4" d="M0 0 M-56.279,-2.449 C-38.592,8.934 -25.121000000000002,9.370000000000001 -14.084,9.384 C18.656000000000002,9.426 43.047,-15.18 43.047,-15.18 C56.138999999999996,0.6870000000000012 56.28,7.324 50.089,12.096 C46.088,15.18 34.025999999999996,14.64 23.038,13.144"></path></g><g opacity="1" transform="matrix(1,0,0,1,69.474,116.539)"><path fill="rgb(236,95,65)" fill-opacity="1" d="M0 0 M-22.626,-7.363 C-17.143,-6.259 -9.856,-4.559 -1.31,-5.001 C8.665,-5.517 16.845000000000002,-6.743 22.626,-8.772 C22.626,-8.772 19.572,8.772 19.572,8.772 C19.572,8.772 -17.118,8.772 -17.118,8.772 C-17.118,8.772 -22.626,-7.363 -22.626,-7.363z"></path><path stroke-linecap="round" stroke-linejoin="round" fill-opacity="0" stroke="rgb(46,59,82)" stroke-opacity="1" stroke-width="4" d="M0 0 M-22.626,-7.363 C-17.143,-6.259 -9.856,-4.559 -1.31,-5.001 C8.665,-5.517 16.845000000000002,-6.743 22.626,-8.772 C22.626,-8.772 19.572,8.772 19.572,8.772 C19.572,8.772 -17.118,8.772 -17.118,8.772 C-17.118,8.772 -22.626,-7.363 -22.626,-7.363z"></path></g><g opacity="1" transform="matrix(1,0,0,1,47.309,103.406)"><path stroke-linecap="round" stroke-linejoin="round" fill-opacity="0" stroke="rgb(46,59,82)" stroke-opacity="1" stroke-width="2" d="M0 0 M-2.342,-5.375 C-2.342,-5.375 2.342,5.375 2.342,5.375"></path></g><g opacity="1" transform="matrix(1,0,0,1,59.707,105.98)"><path stroke-linecap="round" stroke-linejoin="round" fill-opacity="0" stroke="rgb(46,59,82)" stroke-opacity="1" stroke-width="2" d="M0 0 M-1.136,-5.319 C-1.136,-5.319 1.136,5.319 1.136,5.319"></path></g><g opacity="1" transform="matrix(1,0,0,1,77.769,105.035)"><path stroke-linecap="round" stroke-linejoin="round" fill-opacity="0" stroke="rgb(46,59,82)" stroke-opacity="1" stroke-width="2" d="M0 0 M0.872,-5.69 C0.872,-5.69 -0.872,5.69 -0.872,5.69"></path></g><g opacity="1" transform="matrix(1,0,0,1,91.298,100.845)"><path stroke-linecap="round" stroke-linejoin="round" fill-opacity="0" stroke="rgb(46,59,82)" stroke-opacity="1" stroke-width="2" d="M0 0 M2.294,-6.765 C2.294,-6.765 -2.294,6.765 -2.294,6.765"></path></g></g><g transform="matrix(1.099879172982275,0.01630352231350105,-0.01630352231350105,1.099879172982275,589.0950578131665,231.6541202477009)" opacity="1" style="user-select: none;"><g opacity="1" transform="matrix(1,0,0,1,24.027,13.31)"><path stroke-linecap="round" stroke-linejoin="round" fill-opacity="0" stroke="rgb(46,59,82)" stroke-opacity="1" stroke-width="4" d="M0 0 M-14.027,1.653 C-11.953999999999999,-1.842 -7.941,-3.309 -4.758,-2.092 C-1.3599999999999999,-0.7930000000000001 -0.444,2.979 -0.368,3.309 C0.8670000000000001,0.14100000000000001 3.9539999999999997,-1.89 7.241,-1.736 C10.197,-1.597 12.847,0.28700000000000037 14.027,3.087"></path></g></g><g transform="matrix(1.099879172982275,0.01630352231350105,-0.01630352231350105,1.099879172982275,676.3838774922783,352.9749655770057)" opacity="1" style="user-select: none;"><g opacity="1" transform="matrix(1,0,0,1,26.516,18.21)"><path stroke-linecap="round" stroke-linejoin="round" fill-opacity="0" stroke="rgb(46,59,82)" stroke-opacity="1" stroke-width="4" d="M0 0 M-16.516,8.21 C-15.958999999999998,3.104000000000001 -12.11,-0.6859999999999999 -7.811,-0.952 C-3.2219999999999995,-1.236 -0.19,2.625 0.069,2.966 C-0.16799999999999998,-1.327 2.322,-5.279 6.184,-6.822 C9.658000000000001,-8.21 13.693999999999999,-7.43 16.516,-4.826"></path></g></g><g transform="matrix(1.099879172982275,0.01630352231350105,-0.01630352231350105,1.099879172982275,794.3800578131664,238.57312024770093)" opacity="1" style="user-select: none;"><g opacity="1" transform="matrix(1,0,0,1,24.027,13.31)"><path stroke-linecap="round" stroke-linejoin="round" fill-opacity="0" stroke="rgb(46,59,82)" stroke-opacity="1" stroke-width="4" d="M0 0 M-14.027,1.652 C-11.953999999999999,-1.8420000000000003 -7.941,-3.3099999999999996 -4.758,-2.094 C-1.3599999999999999,-0.7949999999999999 -0.444,2.979 -0.368,3.31 C0.8670000000000001,0.14100000000000001 3.955,-1.8900000000000001 7.242,-1.737 C10.198,-1.598 12.847,0.2869999999999999 14.027,3.086"></path></g></g><g transform="matrix(1.099879172982275,0.01630352231350105,-0.01630352231350105,1.099879172982275,683.5700578131665,270.8651202477009)" opacity="1" style="user-select: none;"><g opacity="1" transform="matrix(1,0,0,1,24.027,13.31)"><path stroke-linecap="round" stroke-linejoin="round" fill-opacity="0" stroke="rgb(46,59,82)" stroke-opacity="1" stroke-width="4" d="M0 0 M-14.027,1.652 C-11.953999999999999,-1.8420000000000003 -7.942,-3.3099999999999996 -4.759,-2.094 C-1.3610000000000002,-0.7949999999999999 -0.444,2.979 -0.368,3.31 C0.8670000000000001,0.14100000000000001 3.9539999999999997,-1.8900000000000001 7.241,-1.737 C10.197,-1.598 12.847,0.2869999999999999 14.027,3.086"></path></g></g><g transform="matrix(1.099879172982275,0.01630352231350105,-0.01630352231350105,1.099879172982275,753.8715710604265,314.6750854843851)" opacity="1" style="user-select: none;"><g opacity="1" transform="matrix(1,0,0,1,31.743,15.009)"><path stroke-linecap="round" stroke-linejoin="round" fill-opacity="0" stroke="rgb(46,59,82)" stroke-opacity="1" stroke-width="4" d="M0 0 M-21.743,2.862 C-18.639,-2.6129999999999995 -12.469999999999999,-5.009 -7.505,-3.222 C-2.2039999999999997,-1.314 -0.666,4.4990000000000006 -0.54,5.009 C1.276,0.06500000000000039 5.993999999999999,-3.174 11.088,-3.036 C15.669999999999998,-2.912 19.831999999999997,-0.07600000000000051 21.743,4.223"></path></g></g><g transform="matrix(1.099879172982275,0.01630352231350105,-0.01630352231350105,1.099879172982275,686.8498741229208,203.33551128848552)" opacity="1" style="user-select: none;"><g opacity="1" transform="matrix(1,0,0,1,29.769,13.804)"><path stroke-linecap="round" stroke-linejoin="round" fill-opacity="0" stroke="rgb(46,59,82)" stroke-opacity="1" stroke-width="4" d="M0 0 M-19.77,3.804 C-17.559,-1.2360000000000002 -12.233,-3.201 -7.54,-2.072 C-2.529,-0.8680000000000001 -0.5,2.0989999999999998 -0.33,2.533 C0.7729999999999999,-1.9339999999999997 4.693,-3.196 9.322,-3.516 C13.485999999999999,-3.804 17.567,-2.347 19.77,1.234"></path></g></g><g transform="matrix(1.099879172982275,0.01630352231350105,-0.01630352231350105,1.099879172982275,540.6774820871861,292.51703760458776)" opacity="1" style="user-select: none;"><g opacity="1" transform="matrix(1,0,0,1,34,20.672)"><path stroke-linecap="round" stroke-linejoin="round" fill-opacity="0" stroke="rgb(46,59,82)" stroke-opacity="1" stroke-width="4" d="M0 0 M-24,10.672 C-22.815,3.45 -17.046,-1.645 -10.909,-1.692 C-4.3580000000000005,-1.742 -0.343,3.9850000000000003 0,4.49 C-0.007,-1.6349999999999998 3.841,-7.067 9.454,-8.964 C14.504000000000001,-10.672 20.186,-9.25 24,-5.328"></path></g></g></g></svg>
