<?xml version="1.0" encoding="utf-8"?>
<!-- Generator: Adobe Illustrator 22.1.0, SVG Export Plug-In . SVG Version: 6.00 Build 0)  -->
<svg version="1.1" id="SK_Estates_Logo" xmlns="http://www.w3.org/2000/svg" xmlns:xlink="http://www.w3.org/1999/xlink" x="0px"
	 y="0px" viewBox="0 0 110 110" style="enable-background:new 0 0 110 110;" xml:space="preserve">
<style type="text/css">
	.st0{fill:#FFFFFF;}
	.st1{fill:#1D1D1B;}
	.st2{fill:#010101;}
</style>
<g id="SK_Logo_Group">
	<circle id="Outer_Circle_3_" class="st0" cx="55" cy="55" r="54.5"/>
	<path id="Outer_Circle_1_" class="st1" d="M55,1c29.776,0,54,24.224,54,54s-24.224,54-54,54S1,84.776,1,55S25.224,1,55,1 M55,0
		C24.624,0,0,24.624,0,55s24.624,55,55,55s55-24.624,55-55S85.376,0,55,0L55,0z"/>
	<path id="Inner_Circle_1_" class="st1" d="M55,13.5c22.883,0,41.5,18.617,41.5,41.5S77.883,96.5,55,96.5S13.5,77.883,13.5,55
		S32.117,13.5,55,13.5 M55,13c-23.196,0-42,18.804-42,42s18.804,42,42,42s42-18.804,42-42S78.196,13,55,13L55,13z"/>
	<g id="Details">
		<path class="st1" d="M59.165,3.659c0.055-0.55,0.546-0.95,1.095-0.895c0.55,0.055,0.95,0.546,0.895,1.095
			c-0.055,0.55-0.546,0.95-1.095,0.895C59.51,4.699,59.109,4.208,59.165,3.659z M49.74,107.236c0.55,0.055,1.04-0.345,1.095-0.895
			c0.055-0.55-0.345-1.04-0.895-1.095c-0.55-0.055-1.04,0.345-1.095,0.895C48.79,106.69,49.191,107.181,49.74,107.236z
			 M105.246,60.059c-0.055,0.55,0.345,1.04,0.895,1.095c0.549,0.055,1.04-0.345,1.095-0.895c0.055-0.55-0.345-1.04-0.895-1.095
			C105.792,59.109,105.301,59.51,105.246,60.059z M2.764,49.74c-0.055,0.55,0.345,1.04,0.895,1.095
			c0.55,0.055,1.04-0.345,1.095-0.895c0.055-0.55-0.345-1.04-0.895-1.095C3.31,48.79,2.819,49.191,2.764,49.74z M94.107,23.048
			c0.349,0.428,0.979,0.491,1.407,0.142c0.428-0.349,0.491-0.979,0.142-1.407s-0.979-0.491-1.407-0.142
			C93.821,21.991,93.757,22.621,94.107,23.048z M14.344,88.217c0.349,0.428,0.979,0.491,1.407,0.142s0.491-0.979,0.142-1.407
			c-0.349-0.428-0.979-0.491-1.407-0.142S13.995,87.789,14.344,88.217z M86.952,94.107c-0.428,0.349-0.491,0.979-0.142,1.407
			c0.349,0.428,0.979,0.491,1.407,0.142c0.428-0.349,0.491-0.979,0.142-1.407C88.009,93.821,87.379,93.757,86.952,94.107z
			 M21.783,14.344c-0.428,0.349-0.491,0.979-0.142,1.407s0.979,0.491,1.407,0.142c0.428-0.349,0.491-0.979,0.142-1.407
			C22.841,14.058,22.211,13.995,21.783,14.344z M78.903,10.515c0.487,0.261,1.093,0.079,1.354-0.408s0.079-1.093-0.408-1.354
			c-0.487-0.261-1.093-0.079-1.354,0.408S78.416,10.254,78.903,10.515z M30.151,101.247c0.487,0.261,1.093,0.079,1.354-0.408
			c0.261-0.487,0.079-1.093-0.408-1.354c-0.487-0.261-1.093-0.079-1.354,0.408C29.482,100.379,29.664,100.985,30.151,101.247z
			 M99.485,78.903c-0.261,0.487-0.079,1.093,0.408,1.354s1.093,0.079,1.354-0.408s0.079-1.093-0.408-1.354
			S99.746,78.416,99.485,78.903z M8.753,30.151c-0.261,0.487-0.079,1.093,0.408,1.354c0.487,0.261,1.093,0.079,1.354-0.408
			c0.261-0.487,0.079-1.093-0.408-1.354C9.621,29.482,9.015,29.664,8.753,30.151z M103.357,40.446
			c0.159,0.529,0.717,0.829,1.246,0.669c0.529-0.159,0.829-0.717,0.669-1.246c-0.159-0.529-0.717-0.829-1.246-0.669
			C103.498,39.359,103.198,39.917,103.357,40.446z M4.728,70.13c0.159,0.529,0.717,0.829,1.246,0.669
			c0.529-0.159,0.829-0.717,0.669-1.246c-0.159-0.529-0.717-0.829-1.246-0.669S4.568,69.601,4.728,70.13z M69.554,103.357
			c-0.529,0.159-0.829,0.717-0.669,1.246c0.159,0.529,0.717,0.829,1.246,0.669c0.529-0.159,0.829-0.717,0.669-1.246
			C70.641,103.498,70.083,103.198,69.554,103.357z M39.87,4.728c-0.529,0.159-0.829,0.717-0.669,1.246
			c0.159,0.529,0.717,0.829,1.246,0.669c0.529-0.159,0.829-0.717,0.669-1.246C40.956,4.868,40.399,4.568,39.87,4.728z M69.659,6.675
			c0.529,0.16,1.087-0.138,1.247-0.667s-0.138-1.087-0.667-1.247s-1.087,0.138-1.247,0.667C68.832,5.956,69.131,6.514,69.659,6.675z
			 M39.76,105.239c0.529,0.16,1.087-0.138,1.247-0.667c0.16-0.529-0.138-1.087-0.667-1.247c-0.529-0.16-1.087,0.138-1.247,0.667
			S39.232,105.079,39.76,105.239z M103.325,69.659c-0.16,0.529,0.138,1.087,0.667,1.247s1.087-0.138,1.247-0.667
			c0.16-0.529-0.138-1.087-0.667-1.247C104.044,68.832,103.486,69.131,103.325,69.659z M4.761,39.76
			c-0.16,0.529,0.138,1.087,0.667,1.247s1.087-0.138,1.247-0.667c0.16-0.529-0.138-1.087-0.667-1.247S4.921,39.232,4.761,39.76z
			 M99.537,31.194c0.26,0.487,0.866,0.671,1.353,0.411c0.487-0.26,0.671-0.866,0.411-1.353s-0.866-0.671-1.353-0.411
			C99.46,30.101,99.277,30.707,99.537,31.194z M8.699,79.748c0.26,0.487,0.866,0.671,1.353,0.411
			c0.487-0.26,0.671-0.866,0.411-1.353c-0.26-0.487-0.866-0.671-1.353-0.411S8.439,79.261,8.699,79.748z M78.806,99.537
			c-0.487,0.26-0.671,0.866-0.411,1.353c0.26,0.487,0.866,0.671,1.353,0.411c0.487-0.26,0.671-0.866,0.411-1.353
			C79.899,99.46,79.293,99.277,78.806,99.537z M30.252,8.699c-0.487,0.26-0.671,0.866-0.411,1.353
			c0.26,0.487,0.866,0.671,1.353,0.411c0.487-0.26,0.671-0.866,0.411-1.353S30.739,8.439,30.252,8.699z M87.037,15.963
			c0.427,0.35,1.057,0.288,1.407-0.139c0.35-0.427,0.288-1.057-0.139-1.407c-0.427-0.35-1.057-0.288-1.407,0.139
			C86.548,14.982,86.61,15.613,87.037,15.963z M21.694,95.583c0.427,0.35,1.057,0.288,1.407-0.139
			c0.35-0.427,0.288-1.057-0.139-1.407s-1.057-0.288-1.407,0.139C21.205,94.603,21.267,95.233,21.694,95.583z M94.037,87.037
			c-0.35,0.427-0.288,1.057,0.139,1.407c0.427,0.35,1.057,0.288,1.407-0.139c0.35-0.427,0.288-1.057-0.139-1.407
			C95.018,86.548,94.387,86.61,94.037,87.037z M14.417,21.694c-0.35,0.427-0.288,1.057,0.139,1.407
			c0.427,0.35,1.057,0.288,1.407-0.139s0.288-1.057-0.139-1.407C15.397,21.205,14.767,21.267,14.417,21.694z M105.257,50.05
			c0.054,0.55,0.544,0.951,1.093,0.897c0.55-0.054,0.951-0.544,0.897-1.093c-0.054-0.55-0.544-0.951-1.093-0.897
			C105.604,49.011,105.203,49.501,105.257,50.05z M2.753,60.146c0.054,0.55,0.544,0.951,1.093,0.897s0.951-0.544,0.897-1.093
			S4.2,58.999,3.65,59.053C3.1,59.107,2.699,59.596,2.753,60.146z M59.95,105.257c-0.55,0.054-0.951,0.544-0.897,1.093
			c0.054,0.55,0.544,0.951,1.093,0.897c0.55-0.054,0.951-0.544,0.897-1.093C60.989,105.604,60.499,105.203,59.95,105.257z
			 M49.854,2.753c-0.55,0.054-0.951,0.544-0.897,1.093s0.544,0.951,1.093,0.897S51.001,4.2,50.947,3.65
			C50.893,3.1,50.404,2.699,49.854,2.753z M64.96,5.492c0.541,0.109,1.069-0.242,1.178-0.783s-0.242-1.069-0.783-1.178
			c-0.541-0.109-1.069,0.242-1.178,0.783C64.068,4.856,64.419,5.383,64.96,5.492z M44.645,106.469
			c0.541,0.109,1.069-0.242,1.178-0.783c0.109-0.541-0.242-1.069-0.783-1.178c-0.541-0.109-1.069,0.242-1.178,0.783
			C43.753,105.833,44.104,106.36,44.645,106.469z M104.508,64.96c-0.109,0.541,0.242,1.069,0.783,1.178
			c0.541,0.109,1.069-0.242,1.178-0.783c0.109-0.541-0.242-1.069-0.783-1.178C105.144,64.068,104.617,64.419,104.508,64.96z
			 M3.531,44.645c-0.109,0.541,0.242,1.069,0.783,1.178c0.541,0.109,1.069-0.242,1.178-0.783c0.109-0.541-0.242-1.069-0.783-1.178
			C4.167,43.753,3.64,44.104,3.531,44.645z M97.05,27.035c0.306,0.46,0.927,0.585,1.386,0.279s0.585-0.927,0.279-1.386
			c-0.306-0.46-0.927-0.585-1.386-0.279S96.744,26.576,97.05,27.035z M11.284,84.072c0.306,0.46,0.927,0.585,1.386,0.279
			s0.585-0.927,0.279-1.386c-0.306-0.46-0.927-0.585-1.386-0.279C11.103,82.992,10.978,83.612,11.284,84.072z M82.965,97.05
			c-0.46,0.306-0.585,0.927-0.279,1.386s0.927,0.585,1.386,0.279s0.585-0.927,0.279-1.386S83.424,96.744,82.965,97.05z
			 M25.928,11.284c-0.46,0.306-0.585,0.927-0.279,1.386s0.927,0.585,1.386,0.279c0.46-0.306,0.585-0.927,0.279-1.386
			C27.008,11.103,26.388,10.978,25.928,11.284z M83.148,13.072c0.459,0.308,1.08,0.186,1.388-0.273
			c0.308-0.459,0.186-1.08-0.273-1.388c-0.459-0.308-1.08-0.186-1.388,0.273C82.567,12.143,82.689,12.764,83.148,13.072z
			 M25.737,98.588c0.459,0.308,1.08,0.186,1.388-0.273s0.186-1.08-0.273-1.388c-0.459-0.308-1.08-0.186-1.388,0.273
			C25.157,97.659,25.279,98.281,25.737,98.588z M96.928,83.148c-0.308,0.459-0.186,1.08,0.273,1.388
			c0.459,0.308,1.08,0.186,1.388-0.273c0.308-0.459,0.186-1.08-0.273-1.388C97.857,82.567,97.236,82.689,96.928,83.148z
			 M11.412,25.737c-0.308,0.459-0.186,1.08,0.273,1.388c0.459,0.308,1.08,0.186,1.388-0.273c0.308-0.459,0.186-1.08-0.273-1.388
			C12.341,25.157,11.719,25.279,11.412,25.737z M104.551,45.256c0.107,0.542,0.632,0.895,1.174,0.788
			c0.542-0.107,0.895-0.632,0.788-1.174c-0.107-0.542-0.632-0.895-1.174-0.788C104.797,44.188,104.444,44.714,104.551,45.256z
			 M3.487,65.13c0.107,0.542,0.632,0.895,1.174,0.788c0.542-0.107,0.895-0.632,0.788-1.174c-0.107-0.542-0.632-0.895-1.174-0.788
			S3.38,64.588,3.487,65.13z M64.744,104.551c-0.542,0.107-0.895,0.632-0.788,1.174c0.107,0.542,0.632,0.895,1.174,0.788
			c0.542-0.107,0.895-0.632,0.788-1.174C65.812,104.797,65.286,104.444,64.744,104.551z M44.87,3.487
			c-0.542,0.107-0.895,0.632-0.788,1.174s0.632,0.895,1.174,0.788c0.542-0.107,0.895-0.632,0.788-1.174S45.412,3.38,44.87,3.487z
			 M74.326,8.344c0.51,0.211,1.095-0.031,1.307-0.541c0.211-0.51-0.031-1.095-0.541-1.307s-1.095,0.031-1.307,0.541
			S73.815,8.133,74.326,8.344z M34.909,103.504c0.51,0.211,1.095-0.031,1.307-0.541s-0.031-1.095-0.541-1.307
			c-0.51-0.211-1.095,0.031-1.307,0.541S34.399,103.292,34.909,103.504z M101.656,74.326c-0.211,0.51,0.031,1.095,0.541,1.307
			c0.51,0.211,1.095-0.031,1.307-0.541s-0.031-1.095-0.541-1.307S101.867,73.815,101.656,74.326z M6.496,34.909
			c-0.211,0.51,0.031,1.095,0.541,1.307s1.095-0.031,1.307-0.541c0.211-0.51-0.031-1.095-0.541-1.307S6.708,34.399,6.496,34.909z
			 M101.656,35.674c0.211,0.51,0.796,0.753,1.307,0.541s0.753-0.796,0.541-1.307c-0.211-0.51-0.796-0.753-1.307-0.541
			S101.445,35.164,101.656,35.674z M6.496,75.091c0.211,0.51,0.796,0.753,1.307,0.541c0.51-0.211,0.753-0.796,0.541-1.307
			c-0.211-0.51-0.796-0.753-1.307-0.541S6.285,74.581,6.496,75.091z M74.326,101.656c-0.51,0.211-0.753,0.796-0.541,1.307
			s0.796,0.753,1.307,0.541s0.753-0.796,0.541-1.307C75.421,101.687,74.836,101.445,74.326,101.656z M34.909,6.496
			c-0.51,0.211-0.753,0.796-0.541,1.307s0.796,0.753,1.307,0.541c0.51-0.211,0.753-0.796,0.541-1.307S35.419,6.285,34.909,6.496z
			 M90.709,19.291c0.391,0.391,1.024,0.391,1.414,0s0.391-1.024,0-1.414s-1.024-0.391-1.414,0S90.318,18.901,90.709,19.291z
			 M17.877,92.123c0.391,0.391,1.024,0.391,1.414,0s0.391-1.024,0-1.414s-1.024-0.391-1.414,0S17.486,91.733,17.877,92.123z
			 M90.709,90.709c-0.391,0.391-0.391,1.024,0,1.414s1.024,0.391,1.414,0s0.391-1.024,0-1.414S91.099,90.318,90.709,90.709z
			 M17.877,17.877c-0.391,0.391-0.391,1.024,0,1.414s1.024,0.391,1.414,0s0.391-1.024,0-1.414S18.267,17.486,17.877,17.877z
			 M105.5,55c0,0.552,0.448,1,1,1s1-0.448,1-1s-0.448-1-1-1S105.5,54.448,105.5,55z M2.5,55c0,0.552,0.448,1,1,1s1-0.448,1-1
			s-0.448-1-1-1S2.5,54.448,2.5,55z M55,105.5c-0.552,0-1,0.448-1,1s0.448,1,1,1s1-0.448,1-1S55.552,105.5,55,105.5z M55,2.5
			c-0.552,0-1,0.448-1,1s0.448,1,1,1s1-0.448,1-1S55.552,2.5,55,2.5z M45.336,103.038l1.178-0.783l-0.191-4.119l-1.769,3.724
			L45.336,103.038z M64.664,6.962l-1.178,0.783l0.191,4.119l1.769-3.724L64.664,6.962z M6.962,45.336l0.783,1.178l4.119-0.191
			L8.14,44.553L6.962,45.336z M103.038,64.664l-0.783-1.178l-4.119,0.191l3.724,1.769L103.038,64.664z M14.199,82.134l1.386,0.279
			l2.777-3.048l-3.884,1.382L14.199,82.134z M95.801,27.866l-1.386-0.279l-2.777,3.048l3.884-1.382L95.801,27.866z M27.866,14.199
			l-0.279,1.386l3.048,2.777l-1.382-3.884L27.866,14.199z M82.134,95.801l0.279-1.386l-3.048-2.777l1.382,3.884L82.134,95.801z
			 M27.688,95.683l1.388-0.273l1.399-3.878l-3.06,2.764L27.688,95.683z M82.312,14.317l-1.388,0.273l-1.399,3.878l3.06-2.764
			L82.312,14.317z M14.317,27.688l0.273,1.388l3.878,1.399l-2.764-3.06L14.317,27.688z M95.683,82.312l-0.273-1.388l-3.878-1.399
			l2.764,3.06L95.683,82.312z M6.921,64.455l1.174,0.788l3.732-1.753L7.709,63.28L6.921,64.455z M103.079,45.545l-1.174-0.788
			l-3.732,1.753l4.118,0.209L103.079,45.545z M45.545,6.921l-0.788,1.174l1.753,3.732l0.209-4.118L45.545,6.921z M64.455,103.079
			l0.788-1.174l-1.753-3.732l-0.209,4.118L64.455,103.079z M36.249,100.27l1.307-0.541l0.607-4.078l-2.455,3.313L36.249,100.27z
			 M73.751,9.73l-1.307,0.541l-0.607,4.078l2.455-3.313L73.751,9.73z M9.73,36.249l0.541,1.307l4.078,0.607l-3.313-2.455
			L9.73,36.249z M100.27,73.751l-0.541-1.307l-4.078-0.607l3.313,2.455L100.27,73.751z M9.73,73.751l1.307,0.541l3.313-2.455
			l-4.078,0.607L9.73,73.751z M100.27,36.249l-1.307-0.541l-3.313,2.455l4.078-0.607L100.27,36.249z M36.249,9.73l-0.541,1.307
			l2.455,3.313l-0.607-4.078L36.249,9.73z M73.751,100.27l0.541-1.307l-2.455-3.313l0.607,4.078L73.751,100.27z M20.352,89.648
			h1.414l2.121-3.536l-3.536,2.121V89.648z M89.648,20.352h-1.414l-2.121,3.536l3.536-2.121V20.352z M20.352,20.352v1.414
			l3.536,2.121l-2.121-3.536H20.352z M89.648,89.648v-1.414l-3.536-2.121l2.121,3.536H89.648z M6,55l1,1l4-1l-4-1L6,55z M104,55
			l-1-1l-4,1l4,1L104,55z M55,6l-1,1l1,4l1-4L55,6z M55,104l1-1l-1-4l-1,4L55,104z"/>
	</g>
	<path id="Estates" class="st1" d="M40.003,78.262l-0.367,1.627h-4.637L35,79.809h0.101c0.279,0,0.505-0.224,0.511-0.501v-4.444
		c-0.018-0.266-0.239-0.476-0.509-0.476h-0.101L35,74.309h2.242c0.344-0.003,0.803-0.083,0.951-0.145v1.394l-0.08-0.002v-0.093
		c0.001-0.48-0.301-0.793-0.779-0.813h-0.527v2.319h1.267c0.391-0.008,0.677-0.295,0.676-0.683v-0.068l0.078-0.002v1.843
		l-0.078-0.001v-0.069c0.001-0.385-0.28-0.671-0.666-0.683h-1.277v2.243h1.556c0.796,0,1.313-0.495,1.56-1.285H40.003z
		 M44.454,77.028c0.485,0.281,0.75,0.726,0.716,1.322C45.121,79.388,44.338,80,43.063,80c-0.715,0-1.385-0.184-1.675-0.484
		c-0.132-0.334-0.02-1.006,0.189-1.353h0.07c-0.064,0.83,0.547,1.517,1.503,1.501c0.693-0.013,1.102-0.397,1.102-0.897
		c0-0.323-0.189-0.579-0.637-0.823l-1.389-0.922c-0.569-0.32-0.821-0.849-0.763-1.43c0.068-0.826,0.673-1.396,1.678-1.396
		c0.257,0,0.721,0.036,1.085,0.082h0.501l-0.105,1.172h-0.077c-0.001-0.554-0.449-0.918-1.123-0.918
		c-0.627,0-1.024,0.339-1.043,0.767c-0.019,0.313,0.216,0.54,0.555,0.741L44.454,77.028z M50.56,74.301
		c0.343-0.004,0.797-0.083,0.944-0.145v1.389l-0.081-0.001v-0.093c0.001-0.487-0.308-0.801-0.797-0.814h-1.071v4.677
		c0.009,0.275,0.234,0.495,0.511,0.495h0.101l0.001,0.079h-2.422l0.001-0.079h0.101c0.275,0,0.498-0.217,0.51-0.489v-4.683h-1.072
		c-0.489,0.013-0.798,0.327-0.797,0.814v0.093l-0.08,0.001v-1.389c0.147,0.062,0.602,0.141,0.944,0.145H50.56z M57.431,79.346
		c0.172,0.327,0.445,0.462,0.68,0.462h0.067v0.08h-2.539v-0.079h0.07c0.205,0,0.429-0.181,0.308-0.5l-0.392-0.985h-1.87
		l-0.408,0.985c-0.131,0.319,0.099,0.5,0.305,0.5h0.07v0.079h-1.709v-0.08h0.072c0.226,0,0.501-0.132,0.67-0.449l1.843-4.166
		c0.057-0.121,0.373-0.812,0.392-1.044h0.072L57.431,79.346z M55.49,77.988l-0.78-1.957l-0.817,1.957H55.49z M62.834,74.301
		c0.343-0.004,0.797-0.083,0.944-0.145v1.389l-0.081-0.001v-0.093c0.001-0.487-0.308-0.801-0.797-0.814h-1.071v4.677
		c0.009,0.275,0.234,0.495,0.511,0.495h0.101l0.001,0.079h-2.422l0.001-0.079h0.101c0.275,0,0.498-0.217,0.51-0.489v-4.683h-1.072
		c-0.489,0.013-0.798,0.327-0.797,0.814v0.093l-0.08,0.001v-1.389c0.147,0.062,0.602,0.141,0.944,0.145H62.834z M69.697,78.262
		l-0.368,1.627h-4.127l0.001-0.08h0.101c0.279,0,0.505-0.224,0.511-0.501v-4.444c-0.018-0.266-0.239-0.476-0.509-0.476h-0.101
		l-0.001-0.079h3.057c0.344-0.003,0.802-0.083,0.951-0.145v1.394l-0.081-0.002v-0.093c0.001-0.48-0.3-0.793-0.778-0.813h-1.341
		v2.319h1.057c0.391-0.008,0.677-0.295,0.676-0.683v-0.068l0.078-0.002v1.843l-0.078-0.001v-0.069
		c0.001-0.385-0.28-0.671-0.666-0.683h-1.066v2.243h1.047c0.796,0,1.313-0.495,1.56-1.285H69.697z M74.283,77.028
		c0.485,0.281,0.75,0.726,0.716,1.322C74.95,79.388,74.168,80,72.893,80c-0.715,0-1.385-0.184-1.675-0.484
		c-0.132-0.334-0.02-1.006,0.189-1.353h0.07c-0.064,0.83,0.547,1.517,1.503,1.501c0.693-0.013,1.102-0.397,1.102-0.897
		c0-0.323-0.189-0.579-0.637-0.823l-1.389-0.922c-0.569-0.32-0.821-0.849-0.763-1.43c0.068-0.826,0.672-1.396,1.678-1.396
		c0.257,0,0.721,0.036,1.085,0.082h0.501l-0.105,1.172h-0.077c-0.001-0.554-0.449-0.918-1.123-0.918
		c-0.627,0-1.024,0.339-1.043,0.767c-0.019,0.313,0.216,0.54,0.555,0.741L74.283,77.028z"/>
	<path id="SK" class="st1" d="M45.184,54.702c2.049,1.187,3.165,3.064,3.022,5.58c-0.204,4.384-3.51,6.968-8.892,6.968
		c-3.018,0-5.846-0.778-7.074-2.044c-0.558-1.406-0.083-4.244,0.798-5.713h0.296c-0.27,3.508,2.309,6.403,6.347,6.339
		c2.926-0.054,4.652-1.676,4.651-3.784c0.002-1.365-0.799-2.449-2.69-3.476l-5.864-3.891c-2.406-1.355-3.467-3.586-3.222-6.039
		c0.286-3.485,2.839-5.892,7.085-5.892c1.083,0,3.047,0.15,4.583,0.345h2.114l-0.441,4.948h-0.324
		c-0.005-2.337-1.898-3.875-4.745-3.875c-2.649,0-4.323,1.431-4.405,3.237c-0.082,1.325,0.913,2.284,2.345,3.129L45.184,54.702z
		 M60.893,64.325c0.022,1.173,0.978,2.116,2.156,2.116h0.426l0.005,0.336H53.256l0.005-0.336h0.426c1.178,0,2.134-0.945,2.156-2.116
		V45.655c-0.029-1.166-0.982-2.102-2.152-2.1h-0.429l-0.005-0.337H63.48l-0.005,0.337h-0.426c-1.171,0-2.122,0.932-2.155,2.095
		L60.893,64.325z M74.569,64.353c1.024,1.359,2.063,2.051,3.431,2.086v0.335h-2.77c-0.955-0.002-5.033,0.072-7.234-2.79
		c-0.639-0.867-6.023-8.266-6.021-8.312l7.993-10.553c0.567-0.755,0.129-1.603-0.801-1.603h-0.325v-0.297h7.719v0.303h-0.147
		c-1.469,0.004-2.803,0.643-3.671,1.627l-6.544,7.771L74.569,64.353z"/>
	<g id="Crown">
		<path class="st2" d="M60.5,36c0,0,1.489-1.551,3-3.5c2.131-2.749,3.622-5.501,2-7.5c-0.83-1.024-2.369-1.393-4-1
			c-0.668-1.896-3.823-2.276-6.011-0.738l-0.053-0.561h0.21c-0.194-0.663-0.303-1.35-0.328-2.041c0.589,0.03,1.175,0.158,1.74,0.385
			v-1.389c-0.565,0.227-1.151,0.355-1.74,0.385c0.025-0.691,0.134-1.378,0.328-2.041h-1.293c0.194,0.663,0.303,1.35,0.328,2.041
			c-0.589-0.03-1.175-0.158-1.74-0.385v1.389c0.565-0.227,1.151-0.355,1.74-0.385c-0.025,0.691-0.134,1.378-0.328,2.041h0.21
			l-0.053,0.561C52.323,21.724,49.168,22.104,48.5,24c-1.631-0.393-3.17-0.024-4,1c-1.622,1.999-0.131,4.751,2,7.5
			c1.511,1.949,3,3.5,3,3.5H60.5z M58.5,35.158c0.69-1.153,1.864-3.521,2.5-5.402c0.424-1.255,0.781-3.108,0.738-4.669
			C63.527,24.586,65.27,25.616,65,27.5c-0.263,1.839-3.069,5.975-4.5,7.658L58.5,35.158z M55.569,35.16
			c0.267-2.907,0.362-7.486,0.156-10.364c1.687-1.842,4.307-2.145,4.665,0.404c0.271,1.928-0.706,6.256-2.402,9.96l0,0L55.569,35.16
			z M49.5,35.158c-1.431-1.683-4.237-5.819-4.5-7.658c-0.27-1.884,1.473-2.914,3.262-2.413c-0.043,1.561,0.314,3.414,0.738,4.669
			c0.636,1.88,1.81,4.249,2.5,5.402L49.5,35.158z M52.012,35.16L52.012,35.16c-1.696-3.704-2.673-8.033-2.402-9.96
			c0.358-2.549,2.978-2.247,4.665-0.404c-0.207,2.879-0.111,7.458,0.156,10.364L52.012,35.16z"/>
	</g>
</g>
</svg>
