<?xml version="1.0" encoding="UTF-8"?>
<!DOCTYPE svg PUBLIC "-//W3C//DTD SVG 1.1//EN" "http://www.w3.org/Graphics/SVG/1.1/DTD/svg11.dtd">
<!-- Creator: CorelDRAW X6 -->
<svg xmlns="http://www.w3.org/2000/svg" xml:space="preserve" width="30.0972in" height="17.4306in" version="1.1" style="shape-rendering:geometricPrecision; text-rendering:geometricPrecision; image-rendering:optimizeQuality; fill-rule:evenodd; clip-rule:evenodd"
viewBox="0 0 30097 17431"
 xmlns:xlink="http://www.w3.org/1999/xlink">
 <defs>
  <style type="text/css">
   <![CDATA[
    .fil0 {fill:#373435;fill-rule:nonzero}
    .fil1 {fill:#FEFEFE;fill-rule:nonzero}
   ]]>
  </style>
 </defs>
 <g id="Layer_x0020_1">
  <metadata id="CorelCorpID_0Corel-Layer"/>
  <path class="fil0" d="M2974 12456c-275,-389 -705,-948 -1240,-948 -308,0 -583,146 -583,502l0 972c0,421 49,972 316,1086 105,41 178,81 178,105 0,24 -24,33 -81,33 -154,0 -373,-24 -762,-24 -389,0 -567,24 -665,24 -89,0 -138,-8 -138,-33 0,-16 49,-48 170,-97 202,-81 284,-689 284,-1094l0 -2933c0,-559 -57,-859 -300,-981 -41,-16 -57,-49 -57,-65 0,-16 24,-41 89,-41 65,0 316,32 616,32 186,0 381,-32 567,-32 65,0 81,24 81,49 0,32 -49,65 -113,97 -162,65 -186,397 -186,673l0 1661 1418 -1062c575,-446 1118,-899 1118,-1086 0,-89 -40,-146 -89,-178 -49,-40 -97,-57 -97,-89 0,-49 65,-65 138,-65 154,0 316,32 470,32 211,0 429,-32 640,-32 219,0 308,24 308,65 0,41 -211,105 -429,203 -389,178 -559,284 -916,543l-2034 1532 0 16c1361,57 1605,243 2326,1305 324,486 746,1086 1256,1378 162,97 284,138 284,170 0,16 -57,33 -97,33 -73,0 -203,-24 -656,-24 -203,0 -510,24 -616,24l-1199 -1750z"/>
  <path class="fil0" d="M7009 9782c0,-259 -16,-608 -300,-713 -32,-16 -57,-24 -57,-57 0,-49 24,-49 130,-49 97,0 276,32 575,32 186,0 381,-32 567,-32 32,0 138,0 138,41 0,32 -16,57 -57,65 -275,81 -300,397 -300,713l0 2852c0,737 0,1313 365,1475 65,24 89,49 89,73 0,16 -40,24 -89,24 -73,0 -324,-24 -713,-24 -454,0 -672,24 -745,24 -65,0 -97,-8 -97,-33 0,-16 57,-40 114,-81 356,-227 381,-940 381,-1459l0 -2852z"/>
  <path class="fil0" d="M10023 9936c-8,-430 -65,-729 -438,-859 -40,-16 -73,-41 -73,-57 0,-32 16,-57 105,-57 81,0 405,32 600,32 202,0 438,-8 608,-16 292,413 632,786 989,1143l2698 2877 0 -2706c0,-689 -235,-1029 -454,-1159 -105,-57 -186,-57 -186,-97 0,-40 49,-73 138,-73 122,0 470,32 632,32 170,0 389,-32 559,-32 113,0 138,41 138,65 0,24 -41,49 -130,89 -203,81 -438,300 -438,1175l0 3282c0,430 -24,770 -81,770l-16 0c-81,0 -178,-186 -681,-762 -989,-1134 -2447,-2771 -3711,-3995l0 3298c0,826 235,1070 413,1175 113,73 170,73 170,113 0,24 -24,33 -65,33 -97,0 -357,-24 -648,-24 -170,0 -616,24 -713,24 -57,0 -89,-8 -89,-33 0,-48 203,-81 324,-186 259,-227 348,-551 348,-1272l0 -2779z"/>
  <path class="fil0" d="M21659 13607c-729,502 -1483,737 -2374,737 -1686,0 -3177,-1086 -3177,-2828 0,-1775 1799,-2682 2917,-2682 1232,0 2172,308 2625,673l-227 689c-16,49 -49,113 -81,113 -24,0 -24,-57 -73,-170 -284,-673 -1151,-1102 -1994,-1102 -1613,0 -2301,1118 -2301,2593 0,1580 908,2512 2391,2512 608,0 1491,-186 1515,-859l0 -689c0,-827 -122,-835 -924,-1021 -8,0 -24,-16 -24,-32 0,-49 65,-49 162,-49 389,0 778,32 1167,32 154,0 389,-32 697,-32 106,0 170,0 170,65 0,24 -24,41 -73,49 -235,73 -397,162 -397,429l0 1572z"/>
  <path class="fil0" d="M23749 8834c267,0 421,227 421,575 0,486 -486,1094 -648,1094 -16,0 -40,-16 -40,-32 0,-16 8,-40 16,-49 194,-259 324,-470 324,-802 -243,0 -494,-81 -494,-357 0,-235 130,-429 421,-429z"/>
  <path class="fil0" d="M27169 11711c-665,-130 -1637,-429 -1637,-1272 0,-1045 1037,-1604 2301,-1604 697,0 1507,178 2123,502l-227 664c-32,89 -65,170 -89,170 -24,0 -40,-73 -73,-170 -243,-745 -1394,-964 -1977,-964 -592,0 -1361,251 -1361,1062 0,778 997,916 1564,1029l956 178c719,137 1357,500 1361,1305l0 12c-4,1285 -1662,1721 -2585,1721 -754,0 -1710,-259 -2358,-567 -57,-24 -81,-40 -81,-49 0,-8 8,-32 16,-49l267 -818c8,-32 32,-57 65,-57 24,0 49,24 57,65 106,908 1345,1272 2131,1272 746,0 1791,-300 1791,-1199 0,-705 -551,-891 -1224,-1029l-1021 -203z"/>
  <path class="fil0" d="M380 16675l378 0c206,0 439,-39 439,-292 0,-188 -180,-257 -351,-257l-465 0 0 549zm0 349c0,163 18,321 102,347 14,4 33,10 33,16 0,4 -16,8 -41,8 -20,0 -57,-6 -180,-6 -153,0 -200,6 -208,6 -8,0 -18,-2 -18,-8 0,-4 18,-12 33,-20 69,-35 104,-143 104,-406l0 -678c0,-65 -12,-149 -80,-176 -22,-8 -31,-16 -31,-23 0,-6 10,-10 41,-10l600 0c543,0 680,143 680,320 0,259 -355,316 -484,316l0 4c235,65 327,108 416,345 39,98 80,245 159,296 35,22 49,16 49,27 0,4 -2,6 -14,6l-235 0c-45,0 -55,-4 -74,-55 -45,-124 -108,-302 -151,-396 -82,-178 -159,-212 -480,-212l-223 0 0 298z"/>
  <path class="fil0" d="M3440 16979c0,80 6,157 14,237 12,112 69,122 278,122 198,0 421,-10 598,-108 65,-37 88,-67 122,-110 6,-6 12,-10 18,-10 6,0 10,4 10,10 0,6 0,14 -4,25l-82 245 -1241 0c-20,0 -29,0 -29,-6 0,-8 10,-18 37,-25 96,-26 102,-259 102,-355l0 -712c0,-78 -4,-147 -78,-184 -8,-4 -14,-6 -14,-12 0,-12 25,-12 43,-12l1086 0 37 118c16,51 39,133 39,141 0,6 -6,8 -12,8 -6,0 -14,-10 -20,-20 -104,-151 -284,-196 -533,-196l-372 0 0 529 198 0c294,0 418,-10 467,-57 31,-31 43,-53 57,-86 4,-6 8,-10 14,-10 10,0 10,12 10,33l0 300c0,12 0,33 -8,33 -4,0 -8,-4 -12,-10 -14,-31 -29,-57 -69,-86 -98,-65 -339,-65 -459,-65l-198 0 0 265z"/>
  <path class="fil0" d="M9340 17390c-43,0 -73,2 -98,2 -22,2 -35,4 -43,4 -16,0 -23,-2 -23,-12 0,-8 12,-12 29,-16 102,-31 131,-108 131,-351l0 -717c0,-139 -27,-180 -84,-196 -12,-4 -16,-10 -16,-14 0,-8 10,-14 37,-14 24,0 69,8 145,8 88,0 145,-8 188,-8 8,0 23,0 23,12 0,8 -8,10 -16,14 -82,23 -98,100 -100,180l0 578c0,457 31,480 229,480 194,0 537,-22 676,-192 10,-16 20,-31 33,-31 8,0 10,6 10,14 0,4 -2,16 -4,24l-78 235 -1037 0z"/>
  <path class="fil0" d="M14529 16979c0,80 6,157 14,237 12,112 69,122 278,122 198,0 420,-10 598,-108 65,-37 88,-67 123,-110 6,-6 12,-10 18,-10 6,0 10,4 10,10 0,6 0,14 -4,25l-82 245 -1241 0c-20,0 -29,0 -29,-6 0,-8 10,-18 37,-25 96,-26 102,-259 102,-355l0 -712c0,-78 -4,-147 -78,-184 -8,-4 -14,-6 -14,-12 0,-12 24,-12 43,-12l1086 0 37 118c16,51 39,133 39,141 0,6 -6,8 -12,8 -6,0 -14,-10 -20,-20 -104,-151 -284,-196 -533,-196l-372 0 0 529 198 0c294,0 418,-10 467,-57 31,-31 43,-53 57,-86 4,-6 8,-10 14,-10 10,0 10,12 10,33l0 300c0,12 0,33 -8,33 -4,0 -8,-4 -12,-10 -14,-31 -29,-57 -69,-86 -98,-65 -339,-65 -459,-65l-198 0 0 265z"/>
  <path class="fil0" d="M17651 16767c-167,-32 -412,-108 -412,-320 0,-263 261,-404 580,-404 176,0 380,45 535,127l-57 167c-8,22 -16,43 -22,43 -6,0 -10,-18 -18,-43 -61,-188 -351,-243 -498,-243 -149,0 -343,63 -343,267 0,196 251,231 394,259l241 45c182,35 343,127 343,331 0,324 -418,435 -651,435 -190,0 -431,-65 -594,-143 -14,-6 -20,-10 -20,-12 0,-2 2,-8 4,-12l67 -206c2,-8 8,-14 16,-14 6,0 12,6 14,16 27,229 339,320 537,320 188,0 451,-75 451,-302 0,-178 -139,-224 -308,-259l-257 -51z"/>
  <path class="fil0" d="M21331 16083l65 227c2,8 4,14 4,20 0,4 0,8 -4,8 -8,0 -16,-10 -26,-22 -90,-135 -300,-182 -453,-182 -72,0 -122,6 -122,84l0 771c0,255 26,351 98,376 31,10 51,18 51,22 0,6 -8,8 -23,8 -14,0 -63,-6 -206,-6 -161,0 -216,6 -237,6 -16,0 -18,-6 -18,-12 0,-10 22,-10 51,-16 82,-20 108,-202 108,-414l0 -735c0,-78 -51,-84 -123,-84 -153,0 -363,47 -453,182 -10,12 -18,22 -27,22 -4,0 -4,-4 -4,-8 0,-6 2,-12 4,-20l65 -227 1249 0z"/>
  <path class="fil0" d="M23525 16261l-247 441 478 0 -231 -441zm-272 492l-131 247c-41,76 -90,182 -90,261 0,35 21,67 51,90 24,18 57,22 57,35 0,6 -12,8 -31,8 -49,0 -96,-4 -143,-4 -49,0 -100,4 -149,4 -18,0 -37,0 -37,-10 0,-12 31,-27 43,-39 84,-80 161,-216 210,-302l537 -988c4,-8 8,-12 15,-12l4 0c6,0 14,8 14,12l602 1159c29,55 78,112 129,147 18,12 31,18 31,22 0,4 -2,10 -21,10 -59,0 -128,-4 -192,-4 -63,0 -149,4 -206,4 -10,0 -16,-2 -16,-6 0,-12 18,-14 39,-24 18,-10 37,-29 37,-73 0,-55 -45,-161 -98,-267l-133 -269 -523 0z"/>
  <path class="fil0" d="M27038 16083l65 227c2,8 4,14 4,20 0,4 0,8 -4,8 -8,0 -16,-10 -26,-22 -90,-135 -300,-182 -453,-182 -71,0 -122,6 -122,84l0 771c0,255 26,351 98,376 31,10 51,18 51,22 0,6 -8,8 -22,8 -15,0 -64,-6 -206,-6 -161,0 -216,6 -237,6 -16,0 -18,-6 -18,-12 0,-10 22,-10 51,-16 82,-20 108,-202 108,-414l0 -735c0,-78 -51,-84 -122,-84 -153,0 -364,47 -453,182 -10,12 -18,22 -26,22 -4,0 -4,-4 -4,-8 0,-6 2,-12 4,-20l65 -227 1249 0z"/>
  <path class="fil0" d="M29001 16979c0,80 6,157 14,237 12,112 69,122 278,122 198,0 421,-10 598,-108 65,-37 88,-67 123,-110 6,-6 12,-10 18,-10 6,0 10,4 10,10 0,6 0,14 -4,25l-82 245 -1241 0c-20,0 -29,0 -29,-6 0,-8 10,-18 37,-25 96,-26 102,-259 102,-355l0 -712c0,-78 -4,-147 -78,-184 -8,-4 -14,-6 -14,-12 0,-12 24,-12 43,-12l1086 0 37 118c16,51 39,133 39,141 0,6 -6,8 -12,8 -6,0 -14,-10 -21,-20 -104,-151 -284,-196 -533,-196l-372 0 0 529 198 0c294,0 419,-10 467,-57 31,-31 43,-53 57,-86 4,-6 8,-10 14,-10 10,0 10,12 10,33l0 300c0,12 0,33 -8,33 -4,0 -8,-4 -12,-10 -14,-31 -29,-57 -69,-86 -98,-65 -339,-65 -459,-65l-198 0 0 265z"/>
  <path class="fil0" d="M6901 16832l-302 -581c0,-3 -7,-11 -12,-11l-4 0c-5,0 -9,3 -12,11l-316 581 74 0 0 563 511 0 0 -563 60 0z"/>
  <path class="fil0" d="M7460 16736l-354 -681c0,-4 -8,-12 -14,-12l-4 0c-6,0 -10,4 -14,12l-370 681 87 0 0 660 599 0 0 -660 71 0z"/>
  <path class="fil0" d="M18484 4835c-306,396 -664,1036 -679,1063l-33 59 0 217 -1043 0 0 -88c74,-147 292,-574 531,-952 52,-82 113,-171 178,-265 267,-387 570,-826 570,-1289 0,-207 -50,-450 -152,-677 106,-52 265,-105 474,-105 371,0 720,440 720,782 0,333 -206,791 -566,1255zm-3327 1339c38,-106 312,-908 312,-2011 0,-539 -66,-775 -137,-872 289,-253 831,-642 1434,-642 538,0 720,639 720,931 0,301 -254,669 -478,993 -68,98 -132,191 -189,282 -308,487 -574,1032 -585,1055l-26 54 0 209 -1051 0zm-1607 -263c-11,-23 -277,-568 -585,-1055 -58,-91 -122,-184 -189,-282 -224,-325 -478,-693 -478,-993 0,-292 181,-931 720,-931 609,0 1159,401 1446,654 -76,94 -149,324 -149,861 0,1042 275,1900 312,2011l-1051 0 0 -209 -26 -54zm-1538 263l0 -217 -33 -59c-15,-27 -373,-667 -679,-1063 -360,-465 -566,-922 -566,-1255 0,-341 349,-782 720,-782 209,0 368,53 474,105 -102,227 -152,470 -152,677 0,463 303,902 570,1289 65,94 126,182 178,265 239,378 457,805 531,952l0 88 -1043 0zm6317 -3897c-341,0 -599,98 -766,190 -197,-202 -462,-339 -798,-339 -848,0 -1560,565 -1874,859 -314,-294 -1026,-859 -1874,-859 -336,0 -601,137 -798,339 -167,-92 -424,-190 -766,-190 -699,0 -1241,701 -1241,1303 0,611 423,1249 675,1574 232,299 509,775 603,939l0 602 6801 0 0 -602c94,-165 372,-640 603,-939 252,-326 675,-963 675,-1574 0,-603 -542,-1303 -1241,-1303z"/>
  <polygon class="fil0" points="11497,7465 18287,7465 18287,6944 11497,6944 "/>
  <path class="fil0" d="M11776 4381l-521 0c14,22 28,43 42,65l514 0c-12,-22 -24,-43 -35,-65z"/>
  <path class="fil0" d="M11564 3739l-588 0c4,21 9,43 15,65l582 0c-4,-22 -7,-43 -9,-65z"/>
  <path class="fil0" d="M11677 4167l-542 0c11,22 22,43 34,65l535 0c-9,-22 -19,-43 -27,-65z"/>
  <path class="fil0" d="M11605 3953l-566 0c8,22 17,43 26,65l559 0c-7,-22 -13,-43 -19,-65z"/>
  <path class="fil0" d="M11575 3310l-526 0c-13,21 -25,43 -36,65l554 0c3,-22 5,-43 8,-65z"/>
  <path class="fil0" d="M11623 3096l-374 0c-28,19 -54,41 -79,65l436 0c5,-22 12,-44 18,-65z"/>
  <path class="fil0" d="M11553 3580c0,-18 2,-37 2,-56l-593 0c-3,19 -5,38 -5,56 0,3 0,7 0,10l596 0c0,-3 0,-6 0,-10z"/>
  <path class="fil0" d="M12580 5667l-475 0c15,26 27,47 37,65l474 0c-12,-21 -24,-43 -36,-65z"/>
  <path class="fil0" d="M12457 5453l-479 0c14,23 27,44 39,65l478 0c-13,-22 -25,-43 -38,-65z"/>
  <path class="fil0" d="M12036 4810l-476 0c16,22 31,43 47,65l473 0c-15,-22 -29,-43 -44,-65z"/>
  <path class="fil0" d="M12182 5024l-474 0c15,22 29,43 43,65l475 0c-15,-22 -29,-43 -45,-65z"/>
  <path class="fil0" d="M11897 4596l-497 0c16,22 32,44 48,65l490 0c-14,-22 -27,-43 -41,-65z"/>
  <path class="fil0" d="M12336 5253c-3,-5 -7,-10 -10,-15l-479 0c14,22 28,44 41,65l479 0c-10,-17 -21,-34 -31,-50z"/>
  <path class="fil0" d="M12697 5881l-472 0 10 18 0 47 496 0c-11,-21 -23,-43 -35,-65z"/>
  <path class="fil0" d="M14261 5667l-583 0c13,25 23,46 33,65l565 0c-5,-21 -10,-43 -15,-65z"/>
  <path class="fil0" d="M14217 5453l-651 0c12,23 24,44 35,65l629 0c-4,-21 -8,-43 -13,-65z"/>
  <path class="fil0" d="M13018 2873c-88,0 -162,29 -223,74l657 0c-139,-46 -285,-74 -433,-74z"/>
  <path class="fil0" d="M13901 3161c-36,-22 -74,-44 -112,-65l-1128 0c-13,21 -25,43 -36,65l1276 0z"/>
  <path class="fil0" d="M13784 5881l16 32 0 33 528 0c-6,-21 -11,-43 -17,-65l-527 0z"/>
  <path class="fil0" d="M14106 4596l-1045 0c15,22 28,44 43,65l1007 0c-2,-22 -3,-43 -5,-65z"/>
  <path class="fil0" d="M14096 3953l-1450 0c12,22 24,43 36,65l1412 0c1,-22 2,-44 2,-65z"/>
  <path class="fil0" d="M14110 3739l-1560 0c7,21 15,43 24,65l1529 0c2,-23 4,-44 6,-65z"/>
  <path class="fil0" d="M14180 5238l-730 0c12,22 24,44 36,65l705 0c-4,-21 -7,-43 -11,-65z"/>
  <path class="fil0" d="M14185 3361c-21,-17 -43,-34 -66,-51l-1552 0c-7,22 -13,44 -18,65l1632 0c2,-5 3,-10 4,-14z"/>
  <path class="fil0" d="M14142 3525l-1617 0c-2,20 -3,39 -3,56 0,3 0,7 1,10l1608 0c4,-22 8,-44 12,-65z"/>
  <path class="fil0" d="M14095 4381l-1181 0c15,22 30,43 45,65 0,0 0,0 0,1l1138 0c-1,-22 -2,-43 -2,-65z"/>
  <path class="fil0" d="M14091 4167l-1320 0c14,22 28,44 43,65l1278 0c0,-22 -1,-43 -1,-65z"/>
  <path class="fil0" d="M14124 4810l-925 0c13,22 27,43 40,65l892 0c-2,-22 -5,-43 -7,-65z"/>
  <path class="fil0" d="M14149 5024l-821 0c13,22 25,44 38,65l792 0c-3,-21 -6,-43 -8,-65z"/>
  <path class="fil0" d="M15658 3590l1604 0c0,-3 1,-7 1,-10 0,-16 -1,-35 -3,-56l-1613 0c4,21 7,42 11,65z"/>
  <path class="fil0" d="M15606 3354c2,7 4,15 6,22l1622 0c-5,-21 -11,-43 -18,-65l-1554 0c-20,15 -38,29 -57,43z"/>
  <path class="fil0" d="M17159 3161c-11,-22 -23,-44 -36,-65l-1130 0c-39,21 -76,43 -112,65l1278 0z"/>
  <path class="fil0" d="M16000 5881l-522 0c-6,23 -12,44 -18,65l523 0 0 -33 16 -32z"/>
  <path class="fil0" d="M15687 4447l1137 0c15,-21 30,-43 45,-65l-1180 0c-1,22 -1,44 -2,65z"/>
  <path class="fil0" d="M15599 5304l699 0c12,-21 24,-43 36,-65l-724 0c-3,22 -7,44 -10,65z"/>
  <path class="fil0" d="M16766 2873c-149,0 -296,29 -434,74l658 0c-62,-46 -135,-74 -223,-74z"/>
  <path class="fil0" d="M15631 5089l787 0c12,-22 25,-43 38,-65l-816 0c-3,22 -5,44 -8,65z"/>
  <path class="fil0" d="M15561 5518l623 0c11,-21 22,-43 34,-65l-644 0c-4,22 -8,44 -13,65z"/>
  <path class="fil0" d="M15674 4661l1005 0c14,-22 28,-43 43,-65l-1043 0c-1,22 -3,44 -5,65z"/>
  <path class="fil0" d="M15656 4875l888 0c13,-22 27,-44 40,-65l-922 0c-2,22 -4,44 -6,65z"/>
  <path class="fil0" d="M15691 4018l1412 0c13,-22 25,-44 36,-65l-1450 0c1,22 2,42 2,65z"/>
  <path class="fil0" d="M15692 4232l1278 0c14,-22 28,-43 42,-65l-1320 0c0,22 0,43 -1,65z"/>
  <path class="fil0" d="M15680 3804l1529 0c9,-22 17,-44 24,-65l-1558 0c2,21 4,43 5,65z"/>
  <path class="fil0" d="M15515 5732l558 0c10,-19 20,-40 33,-65l-577 0c-5,22 -10,44 -15,65z"/>
  <path class="fil0" d="M17448 5253c-11,17 -21,33 -31,50l479 0c13,-21 27,-43 41,-65l-479 0c-3,5 -7,10 -10,15z"/>
  <path class="fil0" d="M18080 4232l535 0c12,-22 23,-44 34,-65l-542 0c-9,22 -18,44 -28,65z"/>
  <path class="fil0" d="M17557 5089l475 0c14,-22 29,-44 43,-65l-473 0c-15,22 -30,44 -45,65z"/>
  <path class="fil0" d="M17167 5732l474 0c10,-18 22,-39 37,-65l-475 0c-12,22 -24,44 -36,65z"/>
  <path class="fil0" d="M17289 5518l478 0c13,-21 25,-43 39,-65l-479 0c-13,22 -26,44 -38,65z"/>
  <path class="fil0" d="M17704 4875l473 0c16,-22 31,-44 47,-65l-476 0c-15,22 -29,44 -44,65z"/>
  <path class="fil0" d="M18216 3376l554 0c-11,-22 -23,-44 -36,-65l-526 0c3,22 5,43 8,65z"/>
  <path class="fil0" d="M18160 3096c6,22 13,43 18,65l436 0c-25,-24 -52,-46 -79,-65l-374 0z"/>
  <path class="fil0" d="M17973 4447l513 0c14,-22 28,-44 42,-65l-521 0c-11,22 -23,44 -35,65z"/>
  <path class="fil0" d="M17846 4661l490 0c16,-22 33,-44 48,-65l-498 0c-13,22 -27,44 -41,65z"/>
  <path class="fil0" d="M18160 4018l559 0c9,-22 18,-44 26,-65l-566 0c-6,22 -13,44 -19,65z"/>
  <path class="fil0" d="M18230 3580c0,3 0,6 0,10l596 0c0,-3 0,-7 0,-10 0,-18 -2,-37 -5,-56l-593 0c1,18 2,37 2,56z"/>
  <path class="fil0" d="M18211 3804l582 0c6,-22 11,-44 15,-65l-588 0c-3,22 -6,44 -9,65z"/>
  <path class="fil0" d="M17052 5946l496 0 0 -47 10 -18 -472 0c-12,22 -23,44 -35,65z"/>
  <polygon class="fil0" points="14892,2618 14057,1783 14892,0 14892,0 15727,1783 "/>
  <polygon class="fil1" points="14892,158 14892,2538 15129,2228 "/>
 </g>
</svg>
